{"title":"Mega Shark vs Giant Octopus - AVM","uid":5045224,"size":237407610,"categoryP":"video","categoryS":"handheld","magnet":"?xt=urn:btih:2060a3b0b5756bc8a30cd4c29ce3c9993e0928e3&amp;dn=Mega+Shark+vs+Giant+Octopus+-+AVM&amp;tr=udp%3A%2F%2Ftracker.openbittorrent.com%3A80&amp;tr=udp%3A%2F%2Fopen.demonii.com%3A1337&amp;tr=udp%3A%2F%2Ftracker.coppersurfer.tk%3A6969&amp;tr=udp%3A%2F%2Fexodus.desync.com%3A6969","seeders":0,"leechers":1,"uploader":"AVIDM","files":1,"time":1249592759,"description":"AVIDMobile - http://www.avidmobile.com.ar (Mobile media)\n\nVideo\nID                               : 1\nFormat                           : MPEG-4 Visual\nFormat profile                   : Advanced Simple@L5\nFormat settings, BVOP            : Yes\nFormat settings, QPel            : No\nFormat settings, GMC             : No warppoints\nFormat settings, Matrix          : Default (H.263)\nCodec ID                         : 20\nDuration                         : 1h 28mn\nBit rate mode                    : Variable\nBit rate                         : 290 Kbps\nMaximum bit rate                 : 1 123 Kbps\nWidth                            : 320 pixels\nHeight                           : 240 pixels\nDisplay aspect ratio             : 4/3\nFrame rate mode                  : Variable\nFrame rate                       : 23.976 fps\nMinimum frame rate               : 23.974 fps\nMaximum frame rate               : 23.981 fps\nResolution                       : 24 bits\nColorimetry                      : 4:2:0\nScan type                        : Progressive\nBits/(Pixel*Frame)               : 0.158\nStream size                      : 184 MiB (81%)\n\nAudio\nID                               : 2\nFormat                           : AAC\nFormat/Info                      : Advanced Audio Codec\nFormat version                   : Version 4\nFormat profile                   : LC\nFormat settings, SBR             : No\nCodec ID                         : 40\nDuration                         : 1h 28mn\nBit rate mode                    : Variable\nBit rate                         : 62.9 Kbps\nMaximum bit rate                 : 99.4 Kbps\nChannel(s)                       : 2 channels\nChannel positions                : L R\nSampling rate                    : 22.05 KHz\nResolution                       : 16 bits\nStream size                      : 40.0 MiB (18%)","torrent":{"xt":"urn:btih:2060a3b0b5756bc8a30cd4c29ce3c9993e0928e3","amp;dn":"Mega+Shark+vs+Giant+Octopus+-+AVM","amp;tr":["udp%3A%2F%2Ftracker.openbittorrent.com%3A80","udp%3A%2F%2Fopen.demonii.com%3A1337","udp%3A%2F%2Ftracker.coppersurfer.tk%3A6969","udp%3A%2F%2Fexodus.desync.com%3A6969"],"infoHash":"2060a3b0b5756bc8a30cd4c29ce3c9993e0928e3","infoHashBuffer":{"type":"Buffer","data":[32,96,163,176,181,117,107,200,163,12,212,194,156,227,201,153,62,9,40,227]},"announce":[],"urlList":[]}}